<svg width="94" height="63" viewBox="0 0 94 63" fill="none" xmlns="http://www.w3.org/2000/svg">
<path d="M17.7235 44.133C16.8882 43.9837 16.1975 43.636 15.6515 43.09C15.1102 42.544 14.7742 41.8533 14.6435 41.018L16.3095 40.752C16.3982 41.1347 16.5545 41.4683 16.7785 41.753C17.0025 42.033 17.2802 42.25 17.6115 42.404C17.9428 42.5533 18.3068 42.628 18.7035 42.628C19.0815 42.628 19.4222 42.565 19.7255 42.439C20.0288 42.313 20.2645 42.1403 20.4325 41.921C20.6052 41.7017 20.6915 41.4543 20.6915 41.179C20.6915 40.8897 20.6028 40.6517 20.4255 40.465C20.2482 40.2783 19.9635 40.1243 19.5715 40.003L17.1425 39.247C16.4472 39.0323 15.9198 38.708 15.5605 38.274C15.2012 37.84 15.0215 37.3057 15.0215 36.671C15.0215 36.153 15.1288 35.691 15.3435 35.285C15.5628 34.879 15.8755 34.5477 16.2815 34.291C16.6875 34.0297 17.1682 33.8593 17.7235 33.78V32.534H19.4105V33.815C20.1618 33.9597 20.7848 34.277 21.2795 34.767C21.7742 35.257 22.1125 35.8917 22.2945 36.671L20.5655 36.986C20.5002 36.6547 20.3672 36.3607 20.1665 36.104C19.9705 35.8473 19.7232 35.649 19.4245 35.509C19.1258 35.369 18.7968 35.299 18.4375 35.299C18.1108 35.299 17.8145 35.355 17.5485 35.467C17.2872 35.579 17.0795 35.733 16.9255 35.929C16.7715 36.125 16.6945 36.3443 16.6945 36.587C16.6945 36.867 16.8042 37.105 17.0235 37.301C17.2475 37.4923 17.5998 37.658 18.0805 37.798L19.8935 38.323C20.4768 38.4957 20.9482 38.7057 21.3075 38.953C21.6715 39.1957 21.9375 39.4897 22.1055 39.835C22.2735 40.1803 22.3575 40.591 22.3575 41.067C22.3575 41.6083 22.2362 42.096 21.9935 42.53C21.7555 42.964 21.4125 43.321 20.9645 43.601C20.5212 43.881 20.0032 44.0653 19.4105 44.154V45.393H17.7235V44.133Z" fill="white"/>
<rect x="0.5" y="0.5" width="93" height="62" rx="5.5" stroke="white"/>
<line y1="13.5" x2="94" y2="13.5" stroke="white"/>
<circle cx="7" cy="7" r="2" fill="white"/>
<circle cx="13" cy="7" r="2" fill="white"/>
<circle cx="19" cy="7" r="2" fill="white"/>
<rect x="34.5" y="24.5" width="47" height="28" rx="5.5" stroke="white"/>
<rect x="35" y="31" width="47" height="8" fill="white"/>
<rect x="39.5" y="43.5" width="6" height="4" rx="2" fill="white" stroke="white"/>
</svg>
