<svg width="94" height="63" viewBox="0 0 94 63" fill="none" xmlns="http://www.w3.org/2000/svg">
<rect x="0.5" y="0.5" width="93" height="62" rx="5.5" stroke="white"/>
<path d="M47.7643 38.2353H53.1175C53.5397 38.2353 53.8821 38.5776 53.8821 39V45.1178C53.8821 45.5401 53.5397 45.8825 53.1175 45.8825H40.8822C40.4599 45.8825 40.1175 45.5401 40.1175 45.1178V32.8825C40.1175 32.4603 40.4599 32.1179 40.8822 32.1179H47C47.4224 32.1179 47.7647 32.4603 47.7647 32.8825L47.7643 38.2353ZM41.6468 44.3528H46.2351V39.7645H41.6468V44.3528ZM41.6468 33.6468V38.235H46.2351V33.6468H41.6468ZM47.7643 44.3528H52.3525V39.7645H47.7643V44.3528ZM53.1175 26H59.2354C59.6576 26 60 26.3424 60 26.7646V32.8825C60 33.3049 59.6576 33.6473 59.2354 33.6473H53.1175C52.6951 33.6473 52.3527 33.3049 52.3527 32.8825V26.7646C52.3527 26.3424 52.6951 26 53.1175 26V26ZM53.8821 27.5294V32.1177H58.4704V27.5294H53.8821ZM58.4704 37.4707C58.4704 37.0483 58.8128 36.7061 59.2352 36.7061C59.6574 36.7061 59.9998 37.0483 59.9998 37.4707V48.9413C59.9998 50.6307 58.6304 52.0002 56.941 52.0002H37.0589C35.3695 52.0002 34 50.6307 34 48.9413V29.0592C34 27.3698 35.3695 26.0004 37.0589 26.0004H48.5295C48.9519 26.0004 49.2941 26.3428 49.2941 26.765C49.2941 27.1874 48.9519 27.5298 48.5295 27.5298H37.0589C36.2141 27.5298 35.5294 28.2145 35.5294 29.0592V48.9413C35.5294 49.7861 36.2141 50.4707 37.0589 50.4707H56.941C57.7857 50.4707 58.4704 49.7861 58.4704 48.9413V37.4707Z" fill="white"/>
<line y1="13.5" x2="94" y2="13.5" stroke="white"/>
<circle cx="7" cy="7" r="2" fill="white"/>
<circle cx="13" cy="7" r="2" fill="white"/>
<circle cx="19" cy="7" r="2" fill="white"/>
</svg>
