<svg width="94" height="63" viewBox="0 0 94 63" fill="none" xmlns="http://www.w3.org/2000/svg">
<rect x="0.5" y="0.5" width="93" height="62" rx="5.5" stroke="white"/>
<path d="M57.539 42.8113L50.7496 40.873V34.75C50.7496 32.6796 49.0708 31 47.0007 31C44.9308 31 43.2518 32.6796 43.2518 34.75V45.5459L42.1518 44.4472C40.6896 42.9824 38.3142 42.985 36.8489 44.4472C35.3867 45.9121 35.3867 48.2849 36.8489 49.7502L43.0993 56H57.4409L59.4504 45.9515C59.7198 44.6035 58.8592 43.1903 57.5387 42.8115L57.539 42.8113ZM55.3915 53.5H44.1356L38.6171 47.9823C38.1311 47.4966 38.13 46.7032 38.6171 46.2148C39.1055 45.7262 39.8988 45.7262 40.3859 46.2148L45.7531 51.5811L45.7534 34.7504C45.7529 34.0594 46.3095 33.5006 47.0006 33.5006C47.6917 33.5006 48.2504 34.0594 48.2504 34.7504V42.7606L57.0381 45.2704L55.3915 53.5Z" fill="white"/>
<path d="M55.7497 26H38.2501C34.7978 26 32 28.7978 32 32.2496C32 35.7019 34.7978 38.4997 38.2501 38.4997H40.7497V35.9996H38.2501C36.1821 35.9996 34.5002 34.3176 34.5002 32.2496C34.5002 30.1818 36.1821 28.4996 38.2501 28.4996H55.7497C57.8178 28.4996 59.4997 30.1818 59.4997 32.2496C59.4997 34.3176 57.8178 35.9996 55.7497 35.9996H53.2501V38.4997H55.7497C59.2021 38.4997 61.9999 35.7019 61.9999 32.2496C61.9999 28.7978 59.2021 26 55.7497 26V26Z" fill="white"/>
<line y1="13.5" x2="94" y2="13.5" stroke="white"/>
<circle cx="7" cy="7" r="2" fill="white"/>
<circle cx="13" cy="7" r="2" fill="white"/>
<circle cx="19" cy="7" r="2" fill="white"/>
</svg>
