<svg width="135" height="26" viewBox="0 0 135 26" fill="none" xmlns="http://www.w3.org/2000/svg">
<path d="M2.03881 2.02211H27.8171C30.2564 2.02211 31.052 5.29614 28.8833 6.41246L3.26413 19.6096C1.09539 20.7271 1.89105 24 4.33032 24H30.2007M103.508 24L103.58 4.307C103.588 2.15384 100.855 1.1772 99.4619 2.83522L88.9012 15.401C87.9691 16.5105 86.2425 16.5082 85.3139 15.3964L74.8237 2.84204C73.4358 1.18061 70.701 2.14817 70.701 4.30019V23.9898M109.989 24V4.34675C109.989 3.06235 111.03 2.02211 112.315 2.02211H130.669C132.983 2.02211 133.879 5.03154 131.94 6.29436L115.615 16.1675M36.8592 23.8569L48.0485 3.46777C49.0397 1.69618 52.045 1.70186 53.0259 3.47799L63.8299 23.8569" stroke="#387EF7" stroke-width="3" stroke-linecap="round" stroke-linejoin="round"/>
</svg>
